# xmcd
#
# Track frame offsets:
#	150
#	12342
#	24930
#	37055
#	49955
#	61817
#	72377
#	84495
#	103075
#	132230
#	143277
#	154555
#	163397
#	173625
#	188095
#	200895
#
# Disc length: 2817
#
# Revision: 2
# Processed by: cddbd v1.5.1PL0 Copyright (c) Steve Scherf et al.
# Submitted via: EasyCD 2.21 - (C) 1996 Greg Leichner
# Normalized: r1:DSETVAR1,TDELIM( - )
#
DISCID=d90aff10
DTITLE=Various Artist - Sowl Power ~ The Very Best Of Rhythm and Blues [CD 2) - Compilation
DYEAR=1900
DGENRE=
TTITLE0=Otis Redding - (Sittin' On) The Dock Of The Bay
TTITLE1=Joe Turner - Flip Flop And Fly
TTITLE2=The Drifters - Under The Boardwalk
TTITLE3=Ray Charles - I Got A Woman
TTITLE4=La Vern Baker - Saved
TTITLE5=Rufus Thomas - Jump Back
TTITLE6=Aretha Franklin - (You Make Me Feel Like) A Natural Woman
TTITLE7=Ben E. King - Supernatural Thing
TTITLE8=Ray Charles - What'd I Say (Part 1 and 2)
TTITLE9=Wilson Pickett - In The Midnight Hour
TTITLE10=Sam And Dave - Hold On, I'm Comin'
TTITLE11=Solomon Burke - Got To Get You Off My Mind
TTITLE12=Aretha Franklin - Think
TTITLE13=Otis Redding - I've Been Loving You Too Long
TTITLE14=Percy Sledge - When a Man Loves A Woman
TTITLE15=The Bar-Kays - Soul Finger
EXTD=
EXTT0=
EXTT1=
EXTT2=
EXTT3=
EXTT4=
EXTT5=
EXTT6=
EXTT7=
EXTT8=
EXTT9=
EXTT10=
EXTT11=
EXTT12=
EXTT13=
EXTT14=
EXTT15=
PLAYORDER=
